# xmcd
#
# Track frame offsets:
#	150
#	15980
#	31317
#	57352
#	77875
#	95455
#	114290
#	131702
#	149952
#	164892
#	178132
#
# Disc length: 2662 seconds
#
# Revision: 1
# Processed by: cddbd v1.4PL0 Copyright (c) Steve Scherf et al.
# Submitted via: audiograbber 1.81.02
#
DISCID=9c0a640b
DTITLE=Josie Kuhn - Walks With Lions
DYEAR=1994
DGENRE=Country
TTITLE0=I Ain't Over You
TTITLE1=Are You Sincere ?
TTITLE2=Down By The River
TTITLE3=Footsteps Down The Hall
TTITLE4=Lonely But Only For You
TTITLE5=Hello Texas
TTITLE6=Heart Of The Sangre De Cristo
TTITLE7=We're Still Here
TTITLE8=Hook Line And Sinker
TTITLE9=I'm Gonna Tell On You
TTITLE10=The Lion
EXTD=
EXTT0=
EXTT1=
EXTT2=
EXTT3=
EXTT4=
EXTT5=
EXTT6=
EXTT7=
EXTT8=
EXTT9=
EXTT10=
PLAYORDER=
